<?xml version="1.0" encoding="UTF-8"?>
<!DOCTYPE svg PUBLIC "-//W3C//DTD SVG 1.1//EN" "http://www.w3.org/Graphics/SVG/1.1/DTD/svg11.dtd">
<svg xmlns="http://www.w3.org/2000/svg" version="1.1" width="500px" height="500px" style="shape-rendering:geometricPrecision; text-rendering:geometricPrecision; image-rendering:optimizeQuality;  clip-rule:evenodd" xmlns:xlink="http://www.w3.org/1999/xlink">
<g><path style="opacity:1" fill="transparent" d="M -0.5,-0.5 C 166.167,-0.5 332.833,-0.5 499.5,-0.5C 499.5,166.167 499.5,332.833 499.5,499.5C 332.833,499.5 166.167,499.5 -0.5,499.5C -0.5,332.833 -0.5,166.167 -0.5,-0.5 Z"/></g>
<g><path style="opacity:1" fill="#" d="M 371.5,87.5 C 374.044,87.1043 376.211,87.771 378,89.5C 378.701,92.9283 378.368,96.2617 377,99.5C 365.583,118.003 353.916,136.336 342,154.5C 278.494,247.373 213.661,339.206 147.5,430C 140.923,431.591 138.756,429.091 141,422.5C 195.087,343.992 249.42,265.659 304,187.5C 326.288,153.891 348.788,120.558 371.5,87.5 Z"/></g>
<g><path style="opacity:1" fill="#" d="M 403.5,214.5 C 406.85,214.335 410.183,214.502 413.5,215C 414.554,216.388 414.72,217.888 414,219.5C 397.842,254.149 382.509,289.149 368,324.5C 362.654,336.86 358.154,349.527 354.5,362.5C 355.726,367.736 358.726,368.903 363.5,366C 373.203,359.97 382.036,352.803 390,344.5C 392.306,339.387 395.472,334.887 399.5,331C 402.956,329.877 405.79,330.71 408,333.5C 407.955,337.122 407.121,340.622 405.5,344C 405.833,344.833 406.167,345.667 406.5,346.5C 413.847,341.825 421.514,337.658 429.5,334C 435.646,331.573 441.479,332.073 447,335.5C 447.985,337.366 448.485,339.366 448.5,341.5C 446.9,348.799 444.4,355.799 441,362.5C 439.739,368.08 441.906,369.913 447.5,368C 460.118,362.025 472.451,355.525 484.5,348.5C 485.72,348.887 486.387,349.72 486.5,351C 485.236,354.186 483.236,356.852 480.5,359C 469.116,368.861 456.116,375.861 441.5,380C 428.241,382.404 423.074,376.904 426,363.5C 428.553,357.678 430.386,351.678 431.5,345.5C 414.466,353.71 399.466,364.876 386.5,379C 381.987,381.969 377.487,382.136 373,379.5C 372.383,376.965 372.883,374.632 374.5,372.5C 374.167,372.167 373.833,371.833 373.5,371.5C 364.269,377.962 354.603,378.962 344.5,374.5C 341.507,371.845 340.174,368.512 340.5,364.5C 340.942,358.291 342.275,352.291 344.5,346.5C 344.167,345.833 343.833,345.167 343.5,344.5C 335.41,354.094 326.743,363.26 317.5,372C 308.003,381.166 296.669,385.166 283.5,384C 279.942,382.108 277.442,379.275 276,375.5C 275.673,348.358 288.506,330.525 314.5,322C 322.359,321.247 330.192,321.414 338,322.5C 340.406,322.297 342.406,321.297 344,319.5C 360.587,289.994 376.921,260.327 393,230.5C 396.262,224.967 399.762,219.634 403.5,214.5 Z"/></g>
<g><path style="opacity:1" fill="#" d="M 107.5,306.5 C 109.722,306.178 111.556,306.845 113,308.5C 114.227,312.591 113.394,316.091 110.5,319C 87.7446,327.863 64.7446,336.03 41.5,343.5C 60.0736,350.139 78.0736,358.139 95.5,367.5C 96.6443,372.073 95.311,375.906 91.5,379C 89.1667,379.667 86.8333,379.667 84.5,379C 67.1005,371.467 50.1005,363.134 33.5,354C 30.2878,351.899 27.2878,349.566 24.5,347C 25.6556,344.367 26.6556,341.7 27.5,339C 53.6884,326.731 80.3551,315.897 107.5,306.5 Z"/></g>
<g><path style="opacity:1" fill="" d="M 321.5,328.5 C 328.718,327.566 332.218,330.566 332,337.5C 322.751,348.806 312.917,359.64 302.5,370C 299.833,371.667 297.167,373.333 294.5,375C 292.633,375.711 291.133,375.211 290,373.5C 289.607,350.974 300.107,335.974 321.5,328.5 Z"/></g>
</svg>
